<svg width="47.000000" height="142.000000" viewBox="0 0 47 142" fill="none" xmlns="http://www.w3.org/2000/svg" xmlns:xlink="http://www.w3.org/1999/xlink">
	<desc>
			Created with Pixso.
	</desc>
	<defs/>
	<path id="!" d="M38.78 89.87L46.39 1.08L46.48 0L-0.49 0L7.01 89.87L38.78 89.87ZM44.39 1L0.59 1L0.68 2L7.93 88.87L37.86 88.87L45.31 2L45.4 1L44.39 1ZM0.91 128.35Q2.57 132.44 6.04 135.79L6.06 135.8Q7.84 137.47 9.9 138.69Q15.47 142 22.99 142Q30 142 35.35 139.01Q37.71 137.69 39.75 135.79Q43.22 132.44 44.88 128.35Q46.4 124.61 46.4 120.26Q46.4 115.05 44.31 110.87Q42.67 107.57 39.73 104.92Q38.34 103.62 36.77 102.6Q31.07 98.92 22.99 98.92Q15.1 98.92 9.36 102.44Q7.62 103.51 6.07 104.91Q3.11 107.58 1.46 110.91Q-0.6 115.07 -0.6 120.26Q-0.6 124.61 0.91 128.35ZM22.99 141Q15.66 141 10.29 137.75Q8.39 136.61 6.74 135.07Q3.42 131.87 1.83 127.96Q0.4 124.4 0.4 120.26Q0.4 115.3 2.38 111.32Q3.94 108.18 6.74 105.65C10.97 101.83 16.39 99.92 22.99 99.92C29.6 99.92 34.95 101.83 39.05 105.65Q41.85 108.18 43.41 111.32Q45.4 115.3 45.4 120.26C45.4 126.05 43.28 130.99 39.05 135.07Q37.18 136.82 35.01 138.05Q29.84 141 22.99 141Z" fill="#323131" fill-opacity="1.000000" fill-rule="evenodd"/>
</svg>
