<svg width="100.000000" height="100.000000" viewBox="0 0 100 100" fill="none" xmlns="http://www.w3.org/2000/svg" xmlns:xlink="http://www.w3.org/1999/xlink">
	<desc>
			Created with Pixso.
	</desc>
	<defs/>
	<path id="Vector" d="M0 50C0 22.43 22.43 0 50 0C77.56 0 100 22.43 100 50C100 77.56 77.56 100 50 100C22.43 100 0 77.56 0 50ZM39.47 68.1C39.47 68.1 51.17 68.46 51.17 57.23C51.17 57.23 51.67 48.09 44.27 48.09C44.27 48.09 49.89 47.67 49.89 41.09C49.89 34.51 45.29 31.29 39.47 31.29L20.32 31.29L20.32 68.1L39.47 68.1ZM74.03 33.46L58.84 33.46L58.84 37.99L74.03 37.99L74.03 33.46ZM39.47 37.83C39.47 37.83 42.08 37.83 42.08 41.66C42.08 45.49 40.55 46.04 38.81 46.04L28.76 46.04L28.76 37.83L39.47 37.83ZM60.5 56.63L79.57 56.63C79.57 56.63 81.66 40.65 66.76 40.65C52.61 40.65 52.62 54.79 52.62 54.79C52.62 54.79 51.65 68.86 66.76 68.86C66.76 68.86 79.36 69.58 79.36 59.08L72.88 59.08C72.88 59.08 73.09 63.03 66.98 63.03C66.98 63.03 60.5 63.47 60.5 56.63ZM60.43 51.72C60.43 51.72 61.22 46.04 66.9 46.04C72.59 46.04 72.52 51.72 72.52 51.72L60.43 51.72ZM39.47 51.71L28.76 51.71L28.76 61.55L38.25 61.55C38.3 61.55 38.35 61.55 38.41 61.55C38.56 61.55 38.73 61.56 38.93 61.55C40.46 61.52 43.35 61.08 43.35 56.77C43.35 51.67 39.47 51.71 39.47 51.71Z" fill="#323131" fill-opacity="1.000000" fill-rule="evenodd"/>
</svg>
