<svg width="30.000000" height="30.000000" viewBox="0 0 30 30" fill="none" xmlns="http://www.w3.org/2000/svg" xmlns:xlink="http://www.w3.org/1999/xlink">
	<desc>
			Created with Pixso.
	</desc>
	<defs/>
	<path id="Facebook" d="M15 30C23.28 30 30 23.28 30 15C30 6.71 23.28 0 15 0C6.71 0 0 6.71 0 15C0 23.28 6.71 30 15 30Z" fill="#FFFFFF" fill-opacity="1.000000" fill-rule="evenodd"/>
	<path id="Vector" d="M12.73 23.65L12.73 14.99L10.97 14.99L10.97 12.12L12.73 12.12L12.73 10.39C12.73 8.05 13.43 6.36 15.99 6.36L19.04 6.36L19.04 9.22L16.89 9.22C15.82 9.22 15.57 9.94 15.57 10.69L15.57 12.12L18.88 12.12L18.43 14.99L15.57 14.99L15.57 23.65L12.73 23.65Z" fill="#5E5372" fill-opacity="1.000000" fill-rule="evenodd"/>
</svg>
