<svg width="30.000000" height="30.000000" viewBox="0 0 30 30" fill="none" xmlns="http://www.w3.org/2000/svg" xmlns:xlink="http://www.w3.org/1999/xlink">
	<desc>
			Created with Pixso.
	</desc>
	<defs/>
	<path id="Vector" d="M20 15C20 17.76 17.76 20 15 20C12.23 20 10 17.76 10 15C10 12.23 12.23 10 15 10C17.76 10 20 12.23 20 15Z" fill="#FFFFFF" fill-opacity="1.000000" fill-rule="evenodd"/>
	<path id="Vector" d="M21.24 0L8.74 0C3.92 0 0 3.92 0 8.75L0 21.25C0 26.07 3.92 30 8.75 30L21.25 30C26.07 30 30 26.07 30 21.24L30 8.74C30 3.92 26.07 0 21.24 0ZM15 22.5C10.86 22.5 7.5 19.13 7.5 15C7.5 10.86 10.86 7.5 15 7.5C19.13 7.5 22.5 10.86 22.5 15C22.5 19.13 19.13 22.5 15 22.5ZM23.75 7.5C23.06 7.5 22.5 6.93 22.5 6.25C22.5 5.56 23.06 5 23.75 5C24.44 5 25 5.56 25 6.25C25 6.93 24.44 7.5 23.75 7.5Z" fill="#FFFFFF" fill-opacity="1.000000" fill-rule="nonzero"/>
</svg>
