<svg width="30.000000" height="21.000000" viewBox="0 0 30 21" fill="none" xmlns="http://www.w3.org/2000/svg" xmlns:xlink="http://www.w3.org/1999/xlink">
	<desc>
			Created with Pixso.
	</desc>
	<defs/>
	<path id="Vector" d="M29.71 4.2C29.62 3.22 29.19 2.3 28.49 1.6C27.79 0.91 26.87 0.48 25.88 0.39C23.53 0.2 20.05 0 15.75 0C10.57 0 6.66 0.21 4.13 0.41C3.14 0.48 2.21 0.91 1.51 1.61C0.81 2.31 0.37 3.23 0.28 4.22C0.13 5.85 0 8 0 10.56C0 13.06 0.13 15.17 0.28 16.78C0.37 17.76 0.81 18.69 1.51 19.38C2.21 20.08 3.14 20.51 4.13 20.58C6.65 20.78 10.56 21 15.75 21C20.05 21 23.53 20.79 25.88 20.6C26.87 20.51 27.79 20.08 28.49 19.39C29.19 18.69 29.62 17.77 29.71 16.79C29.86 15.17 30 13.03 30 10.5C30 7.96 29.86 5.82 29.71 4.2ZM11.66 14.9L11.66 6.09L20.36 10.5L11.66 14.9Z" fill="#FFFFFF" fill-opacity="1.000000" fill-rule="nonzero"/>
</svg>
