<svg width="474.000000" height="475.000000" viewBox="0 0 474 475" fill="none" xmlns="http://www.w3.org/2000/svg" xmlns:xlink="http://www.w3.org/1999/xlink">
	<desc>
			Created with Pixso.
	</desc>
	<defs/>
	<path id="Star" d="M236.5 0L223.07 24.17L206.73 1.87L196.44 27.53L177.43 7.46L170.44 34.21L149.07 16.67L145.49 44.09L122.08 29.37L121.96 57.02L96.9 45.35L100.25 72.8L73.92 64.37L80.68 91.17L53.5 86.11L63.57 111.86L35.97 110.24L49.18 134.52L21.6 136.37L37.76 158.81L10.62 164.1L29.46 184.34L3.2 192.99L24.43 210.71L-0.54 222.58L22.75 237.5L-0.54 252.41L24.43 264.29L3.2 282L29.46 290.65L10.62 310.89L37.76 316.18L21.6 338.62L49.18 340.47L35.97 364.75L63.57 363.13L53.5 388.88L80.68 383.82L73.92 410.63L100.25 402.19L96.9 429.64L121.96 417.97L122.08 445.62L145.49 430.9L149.07 458.32L170.44 440.78L177.43 467.53L196.44 447.46L206.73 473.12L223.07 450.82L236.5 475L249.92 450.82L266.26 473.12L276.55 447.46L295.56 467.53L302.55 440.78L323.93 458.32L327.51 430.9L350.91 445.62L351.03 417.97L376.09 429.64L372.74 402.19L399.08 410.63L392.31 383.82L419.49 388.88L409.42 363.13L437.02 364.75L423.81 340.47L451.39 338.62L435.24 316.18L462.37 310.89L443.53 290.65L469.79 282L448.56 264.29L473.53 252.41L450.25 237.5L473.53 222.58L448.56 210.71L469.79 192.99L443.53 184.34L462.37 164.1L435.24 158.81L451.39 136.37L423.81 134.52L437.02 110.24L409.42 111.86L419.49 86.11L392.31 91.17L399.08 64.36L372.74 72.8L376.09 45.35L351.03 57.02L350.91 29.37L327.51 44.09L323.92 16.67L302.55 34.21L295.56 7.46L276.55 27.53L266.26 1.87L249.92 24.17L236.5 0Z" fill="#C22D63" fill-opacity="1.000000" fill-rule="evenodd"/>
</svg>
