<svg width="285" height="270" fill="none" xmlns="http://www.w3.org/2000/svg"><path d="M259.579 154.766l-11.868-2.175 1.417-7.771 11.965 2.193L285 137.96l-1.505 8.25-16.52 6.243 13.248 11.697-1.391 7.626-19.253-17.01zm-18.518 49.202a85 85 0 01-1.676-1.18l10.196-17.013c-1.574-.53-3.106-.467-4.597.19-1.491.657-2.746 1.836-3.765 3.536-.702 1.17-1.153 2.302-1.354 3.394-.189 1.137-.143 2.322.14 3.554l-5.833 1.21c-1.149-3.574-.505-7.396 1.934-11.464 1.52-2.536 3.351-4.486 5.493-5.851 2.17-1.348 4.448-2.024 6.835-2.029 2.386-.004 4.691.663 6.915 2.003 2.197 1.322 3.862 3.026 4.996 5.112a12.836 12.836 0 011.548 6.791c-.101 2.442-.829 4.791-2.181 7.048-1.32 2.202-2.987 3.91-5.001 5.124-2.014 1.214-4.212 1.787-6.592 1.719-2.37-.023-4.722-.738-7.058-2.144zm13.704-7.62c.886-1.477 1.212-2.968.979-4.473-.233-1.506-1.005-2.805-2.318-3.898l-6.639 11.077c1.552.63 3.045.695 4.481.194 1.463-.484 2.629-1.451 3.497-2.9zm-35.297 48.353L211.4 217.4l6.055-4.981 25.104 13.288-6.055 4.98-16.9-9.186 5.505 18.559-5.641 4.641zm-30.923 16.72c-3.069 1.05-5.855.972-8.356-.233-2.531-1.195-4.415-3.608-5.651-7.238l-4.84-14.213 7.182-2.457 4.463 13.106c.671 1.969 1.598 3.283 2.782 3.943 1.195.69 2.606.757 4.233.201 1.811-.62 3.06-1.682 3.746-3.188.698-1.475.669-3.32-.085-5.535l-4.18-12.276 7.183-2.457 11.66 34.242-7.183 2.457-4.086-11.998c-.627 1.279-1.532 2.395-2.715 3.35-1.172.985-2.557 1.75-4.153 2.296zm-58.922-5.502c.004-.097.076-.778.217-2.042l19.789.689c-.3-1.636-1.098-2.949-2.395-3.937-1.296-.989-2.933-1.517-4.91-1.586-1.361-.048-2.568.105-3.618.459-1.085.385-2.096 1.001-3.034 1.846l-3.883-4.526c2.561-2.741 6.208-4.029 10.941-3.864 2.949.103 5.539.762 7.769 1.978 2.228 1.249 3.923 2.918 5.084 5.008 1.16 2.089 1.696 4.434 1.606 7.033-.089 2.566-.769 4.852-2.039 6.857-1.304 2.036-3.029 3.586-5.176 4.65-2.18 1.095-4.582 1.597-7.208 1.505-2.561-.089-4.859-.722-6.895-1.899-2.037-1.176-3.602-2.825-4.697-4.945-1.128-2.088-1.645-4.497-1.551-7.226zm13.294 8.318c1.718.06 3.177-.377 4.378-1.311 1.201-.934 1.96-2.241 2.278-3.921l-12.885-.449c.202 1.666.869 3.006 2.002 4.022 1.132 1.047 2.541 1.601 4.227 1.659zm-50.175-3.485c-2.987-1.266-5.013-3.184-6.077-5.753-1.094-2.581-.895-5.639.596-9.172l5.837-13.832 6.99 2.964-5.382 12.754c-.81 1.916-.991 3.515-.546 4.798.432 1.313 1.44 2.305 3.023 2.976 1.762.747 3.4.788 4.913.124 1.5-.635 2.705-2.03 3.615-4.186l5.041-11.946 6.99 2.964-10.196 24.161-6.676-2.83 1.194-2.83c-1.356.626-2.834.917-4.436.873-1.614-.014-3.243-.369-4.886-1.065zm-47.739-62.877l8.78 13.18 7.743-1.547 4.485 6.733-36.752 6.299-4.323-6.489 19.87-31.646 4.591 6.895-4.394 6.575zm-3.6 5.399l-7.845 11.757 13.843-2.754-5.997-9.003zm-30.524-37.113c-.644-3.186-.21-5.944 1.305-8.275 1.508-2.363 4.138-3.925 7.889-4.687l14.686-2.983 1.507 7.455-13.542 2.751c-2.034.413-3.454 1.166-4.26 2.258-.836 1.099-1.084 2.492-.742 4.181.38 1.88 1.27 3.258 2.672 4.134 1.37.883 3.2 1.091 5.488.627l12.684-2.576 1.507 7.455-25.653 5.21-1.44-7.121 3.004-.61c-1.28-.768-2.355-1.827-3.223-3.176-.9-1.343-1.528-2.891-1.882-4.643zm-9.543-62.892l35.536 6.37-1.277 7.152-2.969-.532c1.904 2.257 2.542 5.145 1.913 8.665-.434 2.432-1.37 4.543-2.81 6.332-1.434 1.757-3.257 3.016-5.468 3.775-2.211.76-4.642.902-7.292.427-2.65-.475-4.88-1.453-6.692-2.934-1.812-1.48-3.086-3.294-3.823-5.441-.732-2.178-.88-4.484-.446-6.916.588-3.295 2.085-5.685 4.492-7.169L0 110.757l1.336-7.488zm27.305 19.26c.337-1.888-.022-3.57-1.077-5.047-1.086-1.483-2.715-2.419-4.886-2.808-2.17-.389-4.006-.075-5.506.945-1.532 1.013-2.466 2.463-2.803 4.351-.343 1.92.03 3.622 1.115 5.104 1.055 1.477 2.667 2.411 4.839 2.8 2.17.389 4.022.077 5.554-.936 1.5-1.019 2.42-2.489 2.764-4.409zM24.067 78.61c-.674-1.407-.93-2.936-.768-4.589.178-1.68.749-3.405 1.714-5.174l6.147 3.37c-.462.71-.763 1.193-.903 1.45-1.042 1.91-1.319 3.704-.829 5.38.462 1.662 1.76 3.077 3.894 4.247l10.843 5.942-3.642 6.674-22.965-12.586 3.478-6.375 3.03 1.661zM36.19 52.273l5.149-5.59 19.233 17.795-5.148 5.59L36.19 52.272zm-.106-5.275c-.946 1.027-2.014 1.587-3.204 1.681-1.19.094-2.226-.267-3.108-1.083-.881-.816-1.323-1.822-1.325-3.018-.002-1.196.47-2.308 1.416-3.335.946-1.027 2.002-1.599 3.168-1.715 1.166-.115 2.178.224 3.036 1.018.93.86 1.407 1.899 1.433 3.117.002 1.196-.47 2.308-1.416 3.335zm38.385-8.929l-1.292 4.972 3.41 5.739-6.52 3.893-18.475-31.084 6.52-3.893L68.57 35.291l4.152-14.739 7.774-4.642-3.685 15.142 17.917 6.897-7.9 4.717-12.36-4.597zm35.523-33.454c3.989-.73 7.226-.333 9.714 1.194 2.482 1.495 4.073 4.161 4.773 7.999l2.686 14.725-6.987 1.28-.587-3.213c-.966 2.655-3.364 4.334-7.192 5.036-1.978.362-3.762.342-5.353-.06-1.558-.41-2.828-1.135-3.809-2.178-.982-1.043-1.61-2.315-1.884-3.818-.437-2.399.112-4.449 1.648-6.151 1.568-1.709 4.234-2.908 7.999-3.598l5.934-1.087c-.297-1.63-1.019-2.787-2.166-3.47-1.152-.714-2.718-.89-4.696-.527a12.973 12.973 0 00-3.945 1.417c-1.233.655-2.244 1.435-3.035 2.34l-3.634-4.737c1.223-1.248 2.758-2.323 4.605-3.223a23.22 23.22 0 015.929-1.93zm3.355 21.642c1.276-.234 2.356-.73 3.24-1.486.878-.789 1.42-1.797 1.625-3.024l-.482-2.638-5.12.938c-3.063.561-4.411 1.85-4.044 3.864.175.96.682 1.66 1.521 2.1.865.404 1.951.486 3.26.246zm47.625-23.833c3.193.572 5.591 1.993 7.196 4.262 1.637 2.275 2.119 5.3 1.445 9.076l-2.639 14.784-7.471-1.34 2.433-13.631c.366-2.048.19-3.648-.527-4.8-.711-1.185-1.913-1.929-3.605-2.232-1.884-.338-3.49-.015-4.819.969-1.323.951-2.19 2.58-2.601 4.883l-2.279 12.768-7.471-1.34L145.243 0l7.136 1.28-.54 3.023c1.184-.91 2.562-1.522 4.133-1.835 1.577-.344 3.244-.36 5-.044zm32.901 9.299l6.738 3.5-12.045 23.291-6.739-3.5 12.046-23.291zm5.048-1.497c-1.238-.643-2.059-1.527-2.464-2.653-.404-1.125-.33-2.222.222-3.29s1.404-1.76 2.555-2.078c1.15-.317 2.345-.155 3.583.489 1.238.643 2.067 1.513 2.486 2.61.419 1.096.36 2.164-.177 3.203-.582 1.125-1.456 1.861-2.622 2.208-1.15.318-2.345.155-3.583-.489zm12.112 43.4c-2.036-1.911-3.482-4.049-4.339-6.413-.812-2.365-.981-4.728-.507-7.09.497-2.339 1.633-4.457 3.406-6.355 1.774-1.899 3.809-3.173 6.106-3.823 2.32-.628 4.673-.602 7.058.08 2.432.678 4.666 1.974 6.702 3.885 2.012 1.889 3.364 3.96 4.057 6.214.739 2.253.72 4.484-.056 6.695l-6.459-1.72c.647-2.69.035-4.912-1.835-6.667-1.444-1.356-3.083-2.004-4.917-1.944-1.834.06-3.515.91-5.045 2.546-1.53 1.637-2.265 3.375-2.205 5.213.06 1.838.812 3.434 2.256 4.79 1.894 1.778 4.146 2.245 6.757 1.4l2.102 6.382c-2.106.874-4.315 1.027-6.628.459-2.29-.546-4.441-1.763-6.453-3.652zM259.684 71.8c1.449 2.907 1.746 5.684.89 8.33-.842 2.675-2.975 4.87-6.399 6.584l-13.404 6.713-3.393-6.805 12.36-6.19c1.857-.93 3.032-2.027 3.526-3.292.522-1.279.399-2.689-.369-4.23-.855-1.716-2.074-2.814-3.654-3.294-1.552-.495-3.373-.219-5.462.827l-11.576 5.798-3.393-6.805 32.292-16.172 3.393 6.804-11.315 5.667c1.349.451 2.574 1.2 3.676 2.247 1.131 1.033 2.074 2.305 2.828 3.817z" fill="#413659"/></svg>